<svg xmlns="http://www.w3.org/2000/svg" viewBox="0 0 1024 1024" role="img" aria-label="Reolink Tracker">
  <defs>
    <radialGradient id="tileGlow" cx="34%" cy="24%" r="78%">
      <stop offset="0" stop-color="#333333"/>
      <stop offset="0.55" stop-color="#171717"/>
      <stop offset="1" stop-color="#050505"/>
    </radialGradient>
    <linearGradient id="redV" x1="270" y1="180" x2="690" y2="905" gradientUnits="userSpaceOnUse">
      <stop offset="0" stop-color="#ff463f"/>
      <stop offset="0.48" stop-color="#e51318"/>
      <stop offset="1" stop-color="#b90006"/>
    </linearGradient>
    <linearGradient id="redSide" x1="256" y1="170" x2="790" y2="820" gradientUnits="userSpaceOnUse">
      <stop offset="0" stop-color="#ff3c37"/>
      <stop offset="1" stop-color="#b3070c"/>
    </linearGradient>
    <linearGradient id="dome" x1="318" y1="280" x2="690" y2="505" gradientUnits="userSpaceOnUse">
      <stop offset="0" stop-color="#ffffff"/>
      <stop offset="0.55" stop-color="#f3f3f3"/>
      <stop offset="1" stop-color="#cfcfcf"/>
    </linearGradient>
    <linearGradient id="cameraBody" x1="354" y1="360" x2="698" y2="610" gradientUnits="userSpaceOnUse">
      <stop offset="0" stop-color="#ffffff"/>
      <stop offset="0.56" stop-color="#ececec"/>
      <stop offset="1" stop-color="#bcbcbc"/>
    </linearGradient>
    <radialGradient id="lens" cx="49%" cy="45%" r="56%">
      <stop offset="0" stop-color="#565656"/>
      <stop offset="0.28" stop-color="#0c0c0e"/>
      <stop offset="0.58" stop-color="#2b2b2e"/>
      <stop offset="0.82" stop-color="#09090a"/>
      <stop offset="1" stop-color="#333333"/>
    </radialGradient>
    <filter id="softShadow" x="-20%" y="-20%" width="140%" height="150%">
      <feDropShadow dx="0" dy="22" stdDeviation="18" flood-color="#000000" flood-opacity="0.48"/>
    </filter>
  </defs>

  <rect x="72" y="72" width="880" height="880" rx="190" fill="url(#tileGlow)" stroke="#343434" stroke-width="8"/>
  <rect x="86" y="86" width="852" height="852" rx="176" fill="none" stroke="#4c4c4c" stroke-width="3" opacity="0.55"/>

  <path d="M270 362 A270 270 0 0 1 476 188" fill="none" stroke="url(#redSide)" stroke-width="30"/>
  <path d="M548 188 A270 270 0 0 1 754 362" fill="none" stroke="url(#redSide)" stroke-width="30"/>
  <path d="M512 172 L512 228" fill="none" stroke="#ff3c36" stroke-width="31"/>
  <path d="M240 452 H294" fill="none" stroke="#ffffff" stroke-width="18"/>
  <path d="M720 452 H776" fill="none" stroke="#ffffff" stroke-width="18"/>
  <path d="M248 486 A281 281 0 0 0 404 740" fill="none" stroke="#626262" stroke-width="18" opacity="0.72"/>
  <path d="M770 382 A282 282 0 0 1 782 418" fill="none" stroke="#626262" stroke-width="18" opacity="0.72"/>
  <path d="M782 532 A282 282 0 0 1 660 730" fill="none" stroke="#626262" stroke-width="18" opacity="0.72"/>

  <path d="M116 188 C225 296 327 470 404 615 C467 733 500 809 532 868 L396 650 C298 483 202 318 116 188Z" fill="url(#redV)" filter="url(#softShadow)"/>
  <path d="M908 250 C814 407 700 593 532 868 C504 820 489 765 490 721 C620 553 767 392 908 250Z" fill="url(#redV)" filter="url(#softShadow)"/>
  <path d="M116 188 C225 296 327 470 404 615 C469 737 507 819 532 868 C557 819 592 758 652 662 C575 701 488 696 414 626 C337 553 242 363 116 188Z" fill="url(#redV)"/>

  <g filter="url(#softShadow)">
    <path d="M326 405 C346 312 425 258 512 258 C599 258 678 312 698 405 C629 383 570 376 512 376 C454 376 395 383 326 405Z" fill="url(#dome)"/>
    <path d="M356 410 C409 386 461 376 512 376 C563 376 615 386 668 410 L668 504 C668 587 596 642 512 642 C428 642 356 587 356 504Z" fill="url(#cameraBody)"/>
    <circle cx="512" cy="320" r="14" fill="#0c0c0c"/>
    <circle cx="512" cy="500" r="116" fill="#080808"/>
    <circle cx="512" cy="500" r="92" fill="url(#lens)"/>
    <circle cx="512" cy="500" r="68" fill="#101013" stroke="#4c4c4e" stroke-width="16"/>
    <circle cx="512" cy="500" r="43" fill="#050505"/>
    <path d="M470 526 A48 48 0 0 0 553 526" fill="none" stroke="#ef2525" stroke-width="16"/>
    <ellipse cx="486" cy="463" rx="30" ry="18" fill="#ffffff" opacity="0.95" transform="rotate(-42 486 463)"/>
    <ellipse cx="511" cy="486" rx="11" ry="8" fill="#ffffff" opacity="0.96" transform="rotate(-18 511 486)"/>
  </g>
</svg>
